<svg width="512" height="512" viewBox="0 0 512 512" fill="none" xmlns="http://www.w3.org/2000/svg">
  <rect width="512" height="512" rx="64" fill="#EAF3FF"/>
  <circle cx="256" cy="256" r="176" fill="#DDEBFF"/>
  <ellipse cx="256" cy="328" rx="132" ry="108" fill="#9EC5FF"/>
  <ellipse cx="256" cy="230" rx="106" ry="118" fill="#F5C9A6"/>
  <ellipse cx="206" cy="222" rx="10" ry="12" fill="#1E1E28"/>
  <ellipse cx="306" cy="222" rx="10" ry="12" fill="#1E1E28"/>
  <path d="M214 274C221 288 236 296 256 296C276 296 291 288 298 274" stroke="#A86752" stroke-width="8" stroke-linecap="round"/>
  <path d="M142 214C142 151 192 106 256 106C320 106 370 151 370 214V234C370 227 364 222 357 222H341C334 222 328 227 328 234V250C328 258 334 264 341 264H355C349 302 318 334 274 342H238C194 334 163 302 157 264H171C178 264 184 258 184 250V234C184 227 178 222 171 222H155C148 222 142 227 142 234V214Z" fill="#2B3F6B"/>
  <path d="M180 178C202 148 230 132 264 132C302 132 334 152 352 184C338 174 320 168 298 168H232C212 168 194 172 180 178Z" fill="#3A568C"/>
  <path d="M176 396C197 370 224 356 256 356C288 356 315 370 336 396V448H176V396Z" fill="#3C6FB5"/>
  <path d="M194 448V398C211 378 232 368 256 368C280 368 301 378 318 398V448H194Z" fill="#4E86D5"/>
  <circle cx="168" cy="252" r="18" fill="#F1BC97"/>
  <circle cx="344" cy="252" r="18" fill="#F1BC97"/>
</svg>
